HIERARCHY
ROOT ui
{
	 OFFSET 0 0 0
	 CHANNELS 3 XPosition YPosition Z Position
	 EndSite
	 {
	 OFFSET 0 -1 0
	 }
}
ROOT li
{
	 OFFSET 0 0 0
	 CHANNELS 3 XPosition YPosition Z Position
	 EndSite
	 {
	 OFFSET 0 -1 0
	 }
}
ROOT ul
{
	 OFFSET 0 0 0
	 CHANNELS 3 XPosition YPosition Z Position
	 EndSite
	 {
	 OFFSET 0 -1 0
	 }
}
ROOT ll
{
	 OFFSET 0 0 0
	 CHANNELS 3 XPosition YPosition Z Position
	 EndSite
	 {
	 OFFSET 0 -1 0
	 }
}
ROOT tt
{
	 OFFSET 0 0 0
	 CHANNELS 3 XPosition YPosition Z Position
	 EndSite
	 {
	 OFFSET 0 -1 0
	 }
}
ROOT tb
{
	 OFFSET 0 0 0
	 CHANNELS 3 XPosition YPosition Z Position
	 EndSite
	 {
	 OFFSET 0 -1 0
	 }
}
ROOT td
{
	 OFFSET 0 0 0
	 CHANNELS 3 XPosition YPosition Z Position
	 EndSite
	 {
	 OFFSET 0 -1 0
	 }
}
ROOT v
{
	 OFFSET 0 0 0
	 CHANNELS 3 XPosition YPosition Z Position
	 EndSite
	 {
	 OFFSET 0 -1 0
	 }
}
ROOT bn
{
	 OFFSET 0 0 0
	 CHANNELS 3 XPosition YPosition Z Position
	 EndSite
	 {
	 OFFSET 0 -1 0
	 }
}
MOTION
Frames: 24
Frame Time: 0.002
0.00912996482849121	-0.003531990051269531	0		0.6012675170898437	-2.901318359375	0		-0.9505927124023438	0.20071640014648437	0		-0.4026968688964844	-2.979161376953125	0		1.9951640625	-1.8348466796875	0		2.94088525390625	-0.2733550720214844	0		4.51397509765625	-0.015038792610168456	0		5.86930029296875	0.29890533447265627	0		-0.22102549743652344	5.9680087890625	0		
-0.03738499069213867	0.0019270039796829223	0		0.5569002685546875	-2.8859208984375	0		-0.93942626953125	0.19092039489746093	0		-0.4008340759277344	-2.953758544921875	0		2.051423095703125	-1.8387137451171875	0		2.9355966796875	-0.25787921142578124	0		4.52711328125	-0.026016313552856444	0		5.8688603515625	0.2994156188964844	0		-0.21953457641601562	5.96641357421875	0		
0.01197182559967041	2.1332800388336183E-4	0		0.5862962646484375	-2.8832041015625	0		-0.9341436767578125	0.18619845581054686	0		-0.3958577880859375	-2.924476806640625	0		2.017385498046875	-1.8106143798828125	0		2.986726806640625	-0.26969052124023435	0		4.545455078125	-0.028129381179809572	0		5.87321142578125	0.2771501770019531	0		-0.20483583068847655	5.9754755859375	0		
-0.03244384002685547	0.00952780818939209	0		0.569235107421875	-2.856499267578125	0		-0.934744873046875	0.1865528106689453	0		-0.38255035400390625	-2.881427978515625	0		2.0442611083984374	-1.7879019775390625	0		2.979963134765625	-0.231241455078125	0		4.54729345703125	-0.007895461082458496	0		5.8754091796875	0.33111172485351564	0		-0.2196019287109375	5.9651328125	0		
0.010772238731384278	8.482580184936523E-4	0		0.5675723876953125	-2.858188232421875	0		-0.939427001953125	0.18294277954101562	0		-0.4361811828613281	-2.835946533203125	0		2.0139462890625	-1.7739637451171875	0		2.984965087890625	-0.24910061645507814	0		4.55940625	-0.020923341751098633	0		5.867568359375	0.3007886657714844	0		-0.35356103515625	5.94837890625	0		
-0.03977639389038086	0.003199004888534546	0		0.5680237426757813	-2.855969482421875	0		-0.952250244140625	0.17245773315429688	0		-0.39254092407226565	-2.825679443359375	0		2.048658935546875	-1.7605062255859374	0		3.00366455078125	-0.23629164123535157	0		4.562955078125	-0.014785618782043456	0		5.86715234375	0.3011751098632813	0		-0.22071356201171874	5.96567138671875	0		
0.005562026977539062	-0.0016271209716796876	0		0.5618211059570313	-2.83964794921875	0		-0.94692431640625	0.16751712036132813	0		-0.4631516418457031	-2.781925048828125	0		2.012373779296875	-1.747517333984375	0		3.041071533203125	-0.2379380645751953	0		4.5881875	-0.024162565231323242	0		5.86440771484375	0.27914862060546874	0		-0.22030389404296874	5.964841796875	0		
0.009098832130432128	0.0014227399826049806	0		0.5684837036132813	-2.83166259765625	0		-0.9474539184570312	0.16765101623535156	0		-0.4358962097167969	-2.74739501953125	0		2.011430908203125	-1.7213511962890624	0		3.034188232421875	-0.20863404846191405	0		4.59974462890625	-0.020264650344848634	0		5.86883251953125	0.2584227600097656	0		-0.20662554931640625	5.97566650390625	0		
0.008615814208984374	0.001507117986679077	0		0.5623848876953125	-2.815443603515625	0		-0.9479385986328125	0.16772576904296874	0		-0.4317769470214844	-2.72141015625	0		2.00769677734375	-1.688166259765625	0		3.070454833984375	-0.22033572387695313	0		4.614435546875	-0.01246817684173584	0		5.86848876953125	0.2586708679199219	0		-0.2071686248779297	5.9757490234375	0		
0.004124555110931396	-0.0013762320280075074	0		0.5781947021484375	-2.8067646484375	0		-0.956519775390625	0.16091816711425783	0		-0.44351910400390626	-2.692130615234375	0		2.0030045166015626	-1.65600732421875	0		3.078649658203125	-0.19244818115234374	0		4.61087744140625	-0.01830674362182617	0		5.868185546875	0.25886422729492187	0		-0.35241946411132813	5.9439677734375	0		
0.003765613079071045	-0.001408074975013733	0		0.5462716064453125	-2.78908251953125	0		-0.9619689331054687	0.15697994995117187	0		-0.45311810302734373	-2.65995751953125	0		2.0092938232421873	-1.6281414794921876	0		3.091357421875	-0.18971092224121094	0		4.62049462890625	-0.019473665237426756	0		5.86080029296875	0.2593807678222656	0		-0.22239027404785155	5.9650498046875	0		
0.014258214950561524	-0.011741525650024414	0		0.5491397705078125	-2.78522998046875	0		-0.954567626953125	0.14269140625	0		-0.44105636596679687	-2.647329345703125	0		2.0105111083984375	-1.60721533203125	0		3.08332275390625	-0.1785585174560547	0		4.63020849609375	-0.019680749893188475	0		5.860599609375	0.25945449829101563	0		-0.22085673522949217	5.96290771484375	0		
0.007344541072845459	0.0012548940181732178	0		0.532328369140625	-2.770998291015625	0		-0.94662158203125	0.14933126831054688	0		-0.4772933349609375	-2.6066904296875	0		2.012213623046875	-1.568345703125	0		3.135869873046875	-0.1907935333251953	0		4.63413818359375	-0.013795787811279298	0		5.86045654296875	0.2594707336425781	0		-0.22027073669433594	5.960724609375	0		
0.007227765083312988	0.0010378869771957397	0		0.5667139892578125	-2.752951171875	0		-0.9508084106445313	0.14617134094238282	0		-0.4537122497558594	-2.57943701171875	0		1.9952325439453125	-1.5191114501953125	0		3.12964208984375	-0.15076197814941406	0		4.64819482421875	-0.006169071197509765	0		5.8677890625	0.2901842346191406	0		-0.20732473754882813	5.9722109375	0		
0.007198690891265869	7.59539008140564E-4	0		0.5418631591796875	-2.7496591796875	0		-0.9549300537109375	0.14194493103027345	0		-0.4572671203613281	-2.562649169921875	0		1.97834375	-1.46992919921875	0		3.145373046875	-0.1622689666748047	0		4.65020947265625	-0.00431285810470581	0		5.860357421875	0.2593423461914062	0		-0.2218005828857422	5.962234375	0		
0.00725740385055542	4.204770028591156E-4	0		0.5363944091796875	-2.73384716796875	0		-0.9589642944335938	0.13765260314941405	0		-0.46745761108398437	-2.533774169921875	0		1.9761912841796876	-1.4371243896484376	0		3.15578759765625	-0.14669430541992187	0		4.6461376953125	-0.010360063552856446	0		5.86040234375	0.2591983642578125	0		-0.22200205993652344	5.96188525390625	0		
0.0033375179767608644	-0.002890522003173828	0		0.5148296508789062	-2.726740966796875	0		-0.9588260498046876	0.13720671081542968	0		-0.49865744018554686	-2.509501708984375	0		1.9745008544921876	-1.387375	0		3.170001708984375	-0.14424891662597655	0		4.64628271484375	-0.01053557586669922	0		5.84626318359375	0.2614837646484375	0		-0.22312266540527342	5.96249658203125	0		
0.00762994384765625	-4.3774199485778806E-4	0		0.5354788208007812	-2.71461328125	0		-0.9486297607421875	0.13547918701171874	0		-0.52774560546875	-2.484337646484375	0		1.92208056640625	-1.328565673828125	0		3.1868447265625	-0.11689892578125	0		4.6565087890625	-0.01097082233428955	0		5.85354443359375	0.2591097717285156	0		-0.3404403076171875	5.952583984375	0		
0.007935804843902588	-9.554730057716369E-4	0		0.5073998413085937	-2.693474853515625	0		-0.9483314208984375	0.1349083251953125	0		-0.4789427795410156	-2.468934814453125	0		1.9275701904296876	-1.2780762939453125	0		3.19687158203125	-0.13045474243164062	0		4.66198828125	-0.0033410210609436035	0		5.85334765625	0.2916765441894531	0		-0.2232316131591797	5.9614951171875	0		
0.008313425064086914	-0.0015308459997177123	0		0.55879296875	-2.70112744140625	0		-0.9520477294921875	0.13036471557617188	0		-0.5469479370117187	-2.447044677734375	0		1.882272216796875	-1.220531494140625	0		3.225749755859375	-0.10845686340332031	0		4.6650830078125	-0.016705604553222658	0		5.85403955078125	0.25837484741210937	0		-0.22418165588378905	5.961927734375	0		
-0.04121134185791016	-7.947500050067901E-5	0		0.528819580078125	-2.68205810546875	0		-0.9575042724609375	0.13480291748046874	0		-0.4990419006347656	-2.433732177734375	0		1.895021240234375	-1.164299560546875	0		3.2261982421875	-0.10889077758789062	0		4.662396484375	-0.02298467445373535	0		5.85094775390625	0.27538748168945315	0		-0.22508433532714844	5.96230322265625	0		
0.009254804611206055	-0.002848611116409302	0		0.5335755615234375	-2.678798583984375	0		-0.9442324829101563	0.12377662658691406	0		-0.5669390869140625	-2.41296484375	0		1.865725341796875	-1.1122078857421875	0		3.226920654296875	-0.09937396240234375	0		4.6556396484375	-0.03521988296508789	0		5.8513076171875	0.2748458557128906	0		-0.2249653778076172	5.96160205078125	0		
-0.04015803909301758	-0.001510830044746399	0		0.5166104125976563	-2.665118408203125	0		-0.9396015625	0.12688842010498047	0		-0.5250860595703125	-2.4076259765625	0		1.866751953125	-1.0478187255859375	0		3.257237060546875	-0.11154559326171876	0		4.6461982421875	-0.03543915557861328	0		5.854697265625	0.289647216796875	0		-0.20861163330078125	5.96950146484375	0		
0.01656683921813965	0.0024932570457458494	0		0.5268228149414063	-2.64607177734375	0		-0.9308526000976562	0.13286329650878906	0		-0.5609444580078125	-2.390659912109375	0		1.8486156005859375	-0.9930681762695313	0		3.279492431640625	-0.08257756805419922	0		4.66097802734375	-0.028223926544189454	0		5.85513525390625	0.28895166015625	0		-0.3560506591796875	5.939861328125	0		
